<?xml version="1.0" encoding="UTF-8" standalone="no"?>
<svg
   xmlns:dc="http://purl.org/dc/elements/1.1/"
   xmlns:cc="http://creativecommons.org/ns#"
   xmlns:rdf="http://www.w3.org/1999/02/22-rdf-syntax-ns#"
   xmlns:svg="http://www.w3.org/2000/svg"
   xmlns="http://www.w3.org/2000/svg"
   xmlns:xlink="http://www.w3.org/1999/xlink"
   width="100%"
   height="100%"
   viewBox="0 0 50 50"
   version="1.1"
   id="svg894">
  <defs id="defs888">
    <linearGradient id="lg1">
      <stop style="stop-color:#d20000;stop-opacity:0" offset="0" id="stop842" />
      <stop style="stop-color:#d20000;stop-opacity:0" offset="0.17" id="stop852" />
      <stop style="stop-color:#d20000;stop-opacity:1;" offset="0.18" id="stop850" />
      <stop style="stop-color:#d20000;stop-opacity:0.1;" offset="1" id="stop844" />
    </linearGradient>
    <radialGradient
       xlink:href="#lg1"
       id="rg1"
       cx="94.161896"
       cy="94.502663"
       fx="94.161896"
       fy="94.502663"
       r="62.305678"
       gradientTransform="matrix(1.2938243,0.00198486,-0.00209479,1.3659682,-27.100748,-34.912863)"
       gradientUnits="userSpaceOnUse" />
  </defs>
  <g id="layer1">
    <path
       style="fill:url(#rg1);"
       id="myPointPath"
       transform="scale(0.26458333)"
       d="m 94.094357,177.49749 c -0.131382,-1.41858 -0.643343,-4.58817 -1.137693,-7.04352 -3.54821,-17.62339 -10.951651,-32.93106 -21.073,-43.57143 -9.179424,-9.65015 -13.396808,-16.14446 -15.539124,-23.92857 -0.711292,-2.58449 -0.831983,-3.832015 -0.811961,-8.392861 0.02008,-4.574664 0.15801,-5.863447 0.944302,-8.823504 1.872403,-7.048807 4.895769,-12.192475 11.005133,-18.723089 8.1585,-8.721039 13.025217,-15.602339 17.648002,-24.953407 4.451189,-9.003963 7.247613,-17.831643 8.576141,-27.07296 0.887525,-6.1736521 0.916468,-6.1969907 1.636782,-1.319897 4.024936,27.251967 19.214151,51.019268 42.282451,66.161403 5.02316,3.297225 13.37306,7.484779 18.92857,9.49285 6.71287,2.426407 18.34109,4.973029 23.26012,5.09405 0.7605,0.01872 -0.78691,0.324097 -3.43869,0.678629 -17.98726,2.404836 -34.67206,9.725876 -48.03572,21.077336 -3.46078,2.93968 -10.31973,9.95511 -13.11322,13.41238 -7.23761,8.95741 -13.78964,21.53271 -17.0139,32.65478 -1.275764,4.40074 -2.778564,11.6658 -3.12335,15.09933 -0.133693,1.33141 -0.358482,2.49207 -0.499525,2.57924 -0.141043,0.0872 -0.363936,-1.00217 -0.495318,-2.42076 z" />
  </g>
</svg>
